<svg id="Features" xmlns="http://www.w3.org/2000/svg" width="743" height="92" viewBox="0 0 743 92">
  <metadata><?xpacket begin="﻿" id="W5M0MpCehiHzreSzNTczkc9d"?>
<x:xmpmeta xmlns:x="adobe:ns:meta/" x:xmptk="Adobe XMP Core 5.6-c138 79.159824, 2016/09/14-01:09:01        ">
   <rdf:RDF xmlns:rdf="http://www.w3.org/1999/02/22-rdf-syntax-ns#">
      <rdf:Description rdf:about=""/>
   </rdf:RDF>
</x:xmpmeta>
                                                                                                    
                                                                                                    
                                                                                                    
                                                                                                    
                                                                                                    
                                                                                                    
                                                                                                    
                                                                                                    
                                                                                                    
                                                                                                    
                                                                                                    
                                                                                                    
                                                                                                    
                                                                                                    
                                                                                                    
                                                                                                    
                                                                                                    
                                                                                                    
                                                                                                    
                                                                                                    
                           
<?xpacket end="w"?></metadata>
<defs>
    <style>
      .cls-1, .cls-2 {
        fill: #38c695;
      }

      .cls-1, .cls-3, .cls-5 {
        fill-rule: evenodd;
      }

      .cls-2, .cls-4, .cls-6 {
        font-size: 18px;
        text-anchor: middle;
        font-family: Poppins;
        font-weight: 500;
        text-transform: uppercase;
      }

      .cls-3, .cls-4 {
        fill: #b27cf5;
      }

      .cls-5, .cls-6 {
        fill: #feb960;
      }
    </style>
  </defs>
  <g id="Feature_one" data-name="Feature one">
    <path id="_" data-name="" class="cls-1" d="M708.052,602a20.006,20.006,0,1,1-5.859-14.14A19.268,19.268,0,0,1,708.052,602Zm-1.641,0a18.272,18.272,0,1,0-5.351,13.008A17.71,17.71,0,0,0,706.411,602Zm-20.9-2.5a16.636,16.636,0,0,0,3.9,1.758,11.482,11.482,0,0,1,3.945,2.148,4.895,4.895,0,0,1,1.875,3.75,4.986,4.986,0,0,1-1.562,3.71,7.1,7.1,0,0,1-4.3,1.836v2.657h-1.8v-2.891q-4.219-.156-6.328-2.5l1.328-1.484,0.625,0.547a7.555,7.555,0,0,0,2.148,1.211,7.942,7.942,0,0,0,3.008.586,5.211,5.211,0,0,0,3.242-.977,3.041,3.041,0,0,0,1.289-2.539,3.414,3.414,0,0,0-1.758-2.89,14.076,14.076,0,0,0-3.906-1.8,10.873,10.873,0,0,1-3.906-2.071A4.437,4.437,0,0,1,681.57,597a4.954,4.954,0,0,1,1.64-3.632,6.615,6.615,0,0,1,4.14-1.836v-2.89h1.875v2.89a7.723,7.723,0,0,1,5.312,1.953l-1.172,1.719-0.624-.469a7.807,7.807,0,0,0-1.875-.938,7.1,7.1,0,0,0-2.5-.469,5.208,5.208,0,0,0-3.32,1.016,3.078,3.078,0,0,0-1.289,2.5A3.135,3.135,0,0,0,685.515,599.5Z" transform="translate(-589 -582)"/>
    <text id="Fixed_price_projects" data-name="Fixed price projects" class="cls-2" transform="translate(99.053 91)">Fixed price projects</text>
  </g>
  <g id="Feature_one_copy" data-name="Feature one copy">
    <path id="_2" data-name="" class="cls-3" d="M941.648,602a18.236,18.236,0,1,0,5.33-13.007A17.738,17.738,0,0,0,941.648,602Zm38.2,0a19.966,19.966,0,1,1-5.836-14.14A19.309,19.309,0,0,1,979.849,602Zm-7.625-7.656-1.323-1.328-10.97,11.172-7.624-7.812-1.323,1.327,8.947,8.829Zm-12.293-8.672A1.327,1.327,0,1,0,961.254,587,1.332,1.332,0,0,0,959.931,585.671Zm0,30A1.327,1.327,0,1,0,961.254,617,1.33,1.33,0,0,0,959.931,615.672Zm-14.937-15A1.327,1.327,0,1,0,946.316,602,1.332,1.332,0,0,0,944.994,600.671Zm29.875,0A1.327,1.327,0,1,0,976.192,602,1.332,1.332,0,0,0,974.869,600.671Z" transform="translate(-589 -582)"/>
    <text id="Receive_on_time" data-name="Receive on time" class="cls-4" transform="translate(370.927 91)">Receive on time</text>
  </g>
  <g id="Feature_one_copy_2" data-name="Feature one copy 2">
    <path id="_3" data-name="" class="cls-5" d="M1234.21,601.976a19.316,19.316,0,0,1-5.83,14.114,19.977,19.977,0,1,1,0-28.229A19.32,19.32,0,0,1,1234.21,601.976Zm-1.59,0a17.775,17.775,0,0,0-5.36-12.99,18.381,18.381,0,1,0,0,25.978A17.77,17.77,0,0,0,1232.62,601.976Zm-6.62-7.129a1.03,1.03,0,0,1-.1,1.689l-13.62,13.317a0.98,0.98,0,0,1-.74.281,1.146,1.146,0,0,1-.84-0.281l-5.32-5.346a1.19,1.19,0,0,1,1.68-1.687l4.48,4.5,12.78-12.473A1.048,1.048,0,0,1,1226,594.847Z" transform="translate(-589 -582)"/>
    <text id="Satisfaction_guranteed" data-name="Satisfaction guranteed" class="cls-6" transform="translate(625.329 91) scale(0.995 1)">Satisfaction guranteed</text>
  </g>
</svg>
