<svg id="stats" xmlns="http://www.w3.org/2000/svg" width="1017" height="192.37" viewBox="0 0 1017 192.37">
  <metadata><?xpacket begin="﻿" id="W5M0MpCehiHzreSzNTczkc9d"?>
<x:xmpmeta xmlns:x="adobe:ns:meta/" x:xmptk="Adobe XMP Core 5.6-c138 79.159824, 2016/09/14-01:09:01        ">
   <rdf:RDF xmlns:rdf="http://www.w3.org/1999/02/22-rdf-syntax-ns#">
      <rdf:Description rdf:about=""/>
   </rdf:RDF>
</x:xmpmeta>
                                                                                                    
                                                                                                    
                                                                                                    
                                                                                                    
                                                                                                    
                                                                                                    
                                                                                                    
                                                                                                    
                                                                                                    
                                                                                                    
                                                                                                    
                                                                                                    
                                                                                                    
                                                                                                    
                                                                                                    
                                                                                                    
                                                                                                    
                                                                                                    
                                                                                                    
                                                                                                    
                           
<?xpacket end="w"?></metadata>
<defs>
    <style>
      .cls-1 {
        fill: #fc5f45;
      }

      .cls-1, .cls-4, .cls-5, .cls-6 {
        fill-rule: evenodd;
      }

      .cls-2 {
        font-size: 15px;
        opacity: 0.7;
      }

      .cls-2, .cls-3 {
        fill: #fefefe;
        text-anchor: middle;
        font-family: Poppins;
      }

      .cls-3 {
        font-size: 20px;
        font-weight: 500;
      }

      .cls-4 {
        fill: #38c695;
      }

      .cls-5 {
        fill: #b27cf5;
      }

      .cls-6 {
        fill: #feb960;
      }
    </style>
  </defs>
  <g id="Stat_1" data-name="Stat 1">
    <path id="_" data-name="" class="cls-1" d="M529,6114.77a7.454,7.454,0,1,1-2.186-5.32A7.239,7.239,0,0,1,529,6114.77Zm-1.25,0a6.272,6.272,0,1,0-1.834,4.41A6.041,6.041,0,0,0,527.747,6114.77Zm-6.246-3.75a3.727,3.727,0,1,1-2.654,1.09A3.608,3.608,0,0,1,521.5,6111.02Z" transform="translate(-448 -5930.63)"/>
    <text id="Projects_Completed" data-name="Projects Completed" class="cls-2" transform="translate(73.501 136.361)">Projects Completed</text>
    <text id="_12_458_" data-name="12,458+" class="cls-3" transform="translate(73.501 93.249)">12,458+</text>
    <path id="_2" data-name="" class="cls-1" d="M502.323,5977.44h43.445v1.96h-45.4v-7.94h-3.914v-1.95h3.914v-7.93h-3.914v-1.96h3.914v-7.83h-3.914v-1.96h3.914v-7.93h-3.914v-1.96h3.914v-7.93h1.957v30.84l13.895-16.45,9.784,9.89,18.983-22.91,1.566,1.17L526,5959.03l-9.784-9.79-13.895,16.74v11.46Z" transform="translate(-448 -5930.63)"/>
  </g>
  <g id="Stat_2" data-name="Stat 2">
    <path id="_3" data-name="" class="cls-4" d="M822,6114.52a7.454,7.454,0,1,1-2.186-5.31A7.2,7.2,0,0,1,822,6114.52Zm-1.25,0a6.255,6.255,0,1,0-1.834,4.41A6,6,0,0,0,820.747,6114.52Zm-6.246-3.75a3.727,3.727,0,0,1,3.748,3.75A3.756,3.756,0,1,1,814.5,6110.77Z" transform="translate(-448 -5930.63)"/>
    <text id="Satisfied_Clients" data-name="Satisfied Clients" class="cls-2" transform="translate(366.5 136.181)">Satisfied Clients</text>
    <text id="_1_796_" data-name="1,796+" class="cls-3" transform="translate(366.5 93.125)">1,796+</text>
    <path id="_4" data-name="" class="cls-4" d="M798.7,5959.97a17.4,17.4,0,0,0-5.235,12.71v4.01H815.48v1.96H791.409v-5.97a19.609,19.609,0,0,1,4.11-12.22,18.906,18.906,0,0,1,10.372-7.04,12.907,12.907,0,0,1-4.795-4.4,11.34,11.34,0,0,1-1.859-6.36,11.484,11.484,0,0,1,3.571-8.5,12.012,12.012,0,0,1,20.5,8.5,11.815,11.815,0,0,1-1.81,6.41,11.6,11.6,0,0,1-4.844,4.35,19.441,19.441,0,0,1,9.1,5.28h-3.033a17.517,17.517,0,0,0-11.253-4.01A17.3,17.3,0,0,0,798.7,5959.97Zm12.769-7.33a9.789,9.789,0,0,0,7.143-2.89,10.017,10.017,0,0,0,0-14.17,9.789,9.789,0,0,0-7.143-2.89A9.975,9.975,0,1,0,811.468,5952.64Zm26.126,22.1h-6.067v5.96H829.57v-5.96H823.5v-2.06h6.067v-5.96h1.957v5.96h6.067v2.06Z" transform="translate(-448 -5930.63)"/>
  </g>
  <g id="Stat_3" data-name="Stat 3">
    <path id="_5" data-name="" class="cls-5" d="M1115,6115.48a7.494,7.494,0,1,1-2.19-5.33A7.282,7.282,0,0,1,1115,6115.48Zm-1.25,0a6.042,6.042,0,0,0-1.84-4.43,6.2,6.2,0,0,0-8.82,0,6.277,6.277,0,0,0,0,8.86A6.25,6.25,0,0,0,1113.75,6115.48Zm-6.25-3.76a3.739,3.739,0,0,1,3.75,3.76,3.668,3.668,0,0,1-1.09,2.67A3.762,3.762,0,1,1,1107.5,6111.72Z" transform="translate(-448 -5930.63)"/>
    <text id="Positive_Feedbacks" data-name="Positive Feedbacks" class="cls-2" transform="translate(659.502 136.885) scale(1.002 1.007)">Positive Feedbacks</text>
    <text id="_1_000_" data-name="1,000+" class="cls-3" transform="translate(659.502 93.608) scale(1.002 1.007)">1,000+</text>
    <path id="_6" data-name="" class="cls-5" d="M1132.55,5947.69a12.978,12.978,0,0,1-3.91,9.48l-21.14,20.05-21.13-19.85a13.359,13.359,0,0,1-3.92-9.64,13.012,13.012,0,0,1,3.92-9.53,13.177,13.177,0,0,1,9.78-3.83,12.7,12.7,0,0,1,9.39,3.83,28.979,28.979,0,0,1,2.16,2.95,11.4,11.4,0,0,1,2.15-2.95,13.438,13.438,0,0,1,18.79,0A12.985,12.985,0,0,1,1132.55,5947.69Zm-2.15-.25a11,11,0,0,0-3.33-8.06,10.5,10.5,0,0,0-8.02-3.34,10.993,10.993,0,0,0-8.12,3.34c-0.53.66-1.08,1.41-1.67,2.26l-1.76,2.95-1.76-2.95a18.649,18.649,0,0,0-1.66-2.26,11.579,11.579,0,0,0-16.34,16.41l19.76,18.98,19.77-18.98a11.332,11.332,0,0,0,3.13-8.35h0Z" transform="translate(-448 -5930.63)"/>
  </g>
  <g id="Stat_4" data-name="Stat 4">
    <path id="_7" data-name="" class="cls-6" d="M1405.96,6115.5a7.477,7.477,0,1,1-2.19-5.33A7.253,7.253,0,0,1,1405.96,6115.5Zm-1.25,0a6.282,6.282,0,1,0-1.84,4.42A6.026,6.026,0,0,0,1404.71,6115.5Zm-6.24-3.76a3.762,3.762,0,1,1-3.75,3.76,3.638,3.638,0,0,1,1.1-2.67A3.584,3.584,0,0,1,1398.47,6111.74Z" transform="translate(-448 -5930.63)"/>
    <text id="Freebies_Released" data-name="Freebies Released" class="cls-2" transform="translate(950.468 136.995)">Freebies Released</text>
    <text id="_1_500_" data-name="1,500+" class="cls-3" transform="translate(950.468 93.801)">1,500+</text>
    <path id="_8" data-name="" class="cls-6" d="M1423.49,5951.31h-1.96v26.98H1375.4v-26.98h-1.95v-7.75h15.93a5.744,5.744,0,0,1,4.3-9.62,5.893,5.893,0,0,0,9.58,0,5.78,5.78,0,0,1,4.3,9.62h15.93v7.75Zm-22.92-14.33a3.873,3.873,0,0,0-1.12,2.75v3.83h3.81a3.82,3.82,0,0,0,2.73-1.13,3.587,3.587,0,0,0,1.18-2.7,3.832,3.832,0,0,0-1.13-2.8,3.778,3.778,0,0,0-2.78-1.12A3.592,3.592,0,0,0,1400.57,5936.98Zm-9.63,5.45a3.843,3.843,0,0,0,2.74,1.13h3.81v-3.83a3.873,3.873,0,0,0-1.12-2.75,3.607,3.607,0,0,0-2.69-1.17,3.784,3.784,0,0,0-2.79,1.12,3.823,3.823,0,0,0-1.12,2.8A3.613,3.613,0,0,0,1390.94,5942.43Zm-15.54,6.92h22.09v-3.83H1375.4v3.83Zm1.86,27.07h20.23v-25.11h-20.23v25.11Zm42.42-25.11h-20.23v25.11h20.23v-25.11Zm1.85-5.79h-22.08v3.83h22.08v-3.83Z" transform="translate(-448 -5930.63)"/>
  </g>
</svg>
